<svg xmlns="http://www.w3.org/2000/svg" viewBox="1267 1753 98 97.999">
  <defs>
    <style>
      .cls-1 {
        fill: #fff;
      }
    </style>
  </defs>
  <path id="Subtraction_4" data-name="Subtraction 4" class="cls-1" d="M491-95a48.7,48.7,0,0,1-19.073-3.851,48.837,48.837,0,0,1-15.575-10.5,48.835,48.835,0,0,1-10.5-15.575A48.692,48.692,0,0,1,442-144a48.692,48.692,0,0,1,3.851-19.073,48.835,48.835,0,0,1,10.5-15.575,48.837,48.837,0,0,1,15.575-10.5A48.7,48.7,0,0,1,491-193a48.693,48.693,0,0,1,19.073,3.851,48.838,48.838,0,0,1,15.575,10.5,48.836,48.836,0,0,1,10.5,15.575A48.692,48.692,0,0,1,540-144a48.692,48.692,0,0,1-3.851,19.073,48.837,48.837,0,0,1-10.5,15.575,48.838,48.838,0,0,1-15.575,10.5A48.693,48.693,0,0,1,491-95Zm21.422-67.359a20.987,20.987,0,0,0-7.817,1.43,19.851,19.851,0,0,0-6.51,4.29,19.13,19.13,0,0,0-4.393,6.428,20.56,20.56,0,0,0-1.465,7.844,20.7,20.7,0,0,0,1.437,7.817,18.649,18.649,0,0,0,4.31,6.345A19.113,19.113,0,0,0,504.516-124a22.554,22.554,0,0,0,8.1,1.4,19.088,19.088,0,0,0,8.3-1.843,22.739,22.739,0,0,0,7.13-5.527l-5.5-5.665a13.409,13.409,0,0,1-4.593,3.754,13.075,13.075,0,0,1-5.747,1.251,10.754,10.754,0,0,1-7.865-3.245,11.685,11.685,0,0,1-3.245-8.608A11.065,11.065,0,0,1,504.53-151a11.843,11.843,0,0,1,8.277-3.163,12.3,12.3,0,0,1,5.555,1.265,13.876,13.876,0,0,1,4.565,3.795l5.335-6.05a21.449,21.449,0,0,0-7.15-5.4A20.834,20.834,0,0,0,512.422-162.359Zm-39.683,0a20.351,20.351,0,0,0-7.672,1.43,19.994,19.994,0,0,0-6.462,4.29,19.126,19.126,0,0,0-4.393,6.428,20.564,20.564,0,0,0-1.464,7.844,20.7,20.7,0,0,0,1.437,7.817A18.643,18.643,0,0,0,458.5-128.2,19.362,19.362,0,0,0,464.923-124a21.136,21.136,0,0,0,7.789,1.4,24.093,24.093,0,0,0,9.02-1.6,18.237,18.237,0,0,0,6.82-4.785v-13.64h-8.635v10.561a14.8,14.8,0,0,1-7.425,1.7,10.435,10.435,0,0,1-7.673-3.272,11.947,11.947,0,0,1-3.217-8.717,11.858,11.858,0,0,1,3.355-8.772,11.31,11.31,0,0,1,8.25-3.328,12.807,12.807,0,0,1,4.7.853,17.056,17.056,0,0,1,4.757,3.107l4.455-6.435A21.351,21.351,0,0,0,480.474-161,21.765,21.765,0,0,0,472.739-162.359Z" transform="translate(825 1946)"/>
</svg>
